<svg width="21" height="20" viewBox="0 0 21 20" fill="none" xmlns="http://www.w3.org/2000/svg">
<path d="M10.5 1.875C8.78369 1.875 7.375 3.28369 7.375 5V5.625H4.28906L4.25 6.21094L3.625 17.4609L3.58594 18.125H17.4141L17.375 17.4609L16.75 6.21094L16.7109 5.625H13.625V5C13.625 3.28369 12.2163 1.875 10.5 1.875ZM10.5 3.125C11.5352 3.125 12.375 3.96484 12.375 5V5.625H8.625V5C8.625 3.96484 9.46484 3.125 10.5 3.125ZM5.46094 6.875H7.375V8.75H8.625V6.875H12.375V8.75H13.625V6.875H15.5391L16.0859 16.875H4.91406L5.46094 6.875Z" fill="#292826"/>
</svg>
