<svg width="20" height="20" viewBox="0 0 20 20" fill="none" xmlns="http://www.w3.org/2000/svg">
<path d="M5.9375 3.125C3.35205 3.125 1.25 5.25147 1.25 7.8125C1.25 8.70606 1.65527 9.47998 2.03125 10.0391C2.40723 10.5981 2.79297 10.957 2.79297 10.957L9.55078 17.7344L10 18.1836L10.4492 17.7344L17.207 10.957C17.207 10.957 18.75 9.59717 18.75 7.8125C18.75 5.25147 16.6479 3.125 14.0625 3.125C11.9165 3.125 10.5347 4.4165 10 4.96094C9.46533 4.4165 8.0835 3.125 5.9375 3.125ZM5.9375 4.375C7.80518 4.375 9.53125 6.19141 9.53125 6.19141L10 6.71875L10.4688 6.19141C10.4688 6.19141 12.1948 4.375 14.0625 4.375C15.9644 4.375 17.5 5.93506 17.5 7.8125C17.5 8.77686 16.3281 10.0781 16.3281 10.0781L10 16.4062L3.67188 10.0781C3.67188 10.0781 3.36914 9.7876 3.06641 9.33594C2.76367 8.88428 2.5 8.2959 2.5 7.8125C2.5 5.93506 4.03564 4.375 5.9375 4.375Z" fill="#292826"/>
</svg>
