<svg width="20" height="20" viewBox="0 0 20 20" fill="none" xmlns="http://www.w3.org/2000/svg">
<path d="M11.875 1.875C8.43018 1.875 5.625 4.68018 5.625 8.125C5.625 9.62158 6.1499 10.9937 7.03125 12.0703L2.05078 17.0508L2.94922 17.9492L7.92969 12.9688C9.00635 13.8501 10.3784 14.375 11.875 14.375C15.3198 14.375 18.125 11.5698 18.125 8.125C18.125 4.68018 15.3198 1.875 11.875 1.875ZM11.875 3.125C14.6436 3.125 16.875 5.35645 16.875 8.125C16.875 10.8936 14.6436 13.125 11.875 13.125C9.10645 13.125 6.875 10.8936 6.875 8.125C6.875 5.35645 9.10645 3.125 11.875 3.125Z" fill="#292826"/>
</svg>
