<svg width="65" height="65" viewBox="0 0 65 65" fill="none" xmlns="http://www.w3.org/2000/svg">
<g clip-path="url(#clip0)">
<path d="M24.5952 4.9698L33.7399 4.9555L38.5788 13.0087L34.273 21.0763L25.1283 21.0906L20.2894 13.0374L24.5952 4.9698Z" fill="#292826"/>
<path d="M25.2665 22.3552L34.4112 22.3409L39.25 30.3941L34.9442 38.4617L25.7996 38.476L20.9607 30.4227L25.2665 22.3552Z" fill="#292826"/>
<path d="M10.5024 13.6938L19.6471 13.6795L24.486 21.7327L20.1802 29.8003L11.0355 29.8146L6.19665 21.7614L10.5024 13.6938Z" fill="#292826"/>
<path d="M11.1735 31.142L20.3182 31.1277L25.1571 39.181L20.8513 47.2485L11.7066 47.2628L6.86773 39.2096L11.1735 31.142Z" fill="#292826"/>
<path d="M40.0304 30.4709L49.1751 30.4566L54.014 38.5098L49.7082 46.5774L40.5635 46.5917L35.7246 38.5385L40.0304 30.4709Z" fill="#292826"/>
<path d="M39.3589 13.6938L48.5036 13.6795L53.3424 21.7327L49.0367 29.8003L39.892 29.8146L35.0531 21.7614L39.3589 13.6938Z" fill="#292826"/>
<path d="M25.9374 39.7409L35.0821 39.7266L39.9209 47.7799L35.6151 55.8474L26.4705 55.8617L21.6316 47.8085L25.9374 39.7409Z" fill="#292826"/>
<path d="M41.5191 48.0167C46.4453 50.5137 51.8334 64.4867 44.5858 64.5112C37.1071 64.5364 42.6231 53.9547 41.5191 48.0167Z" fill="#FFC857"/>
</g>
<defs>
<clipPath id="clip0">
<rect width="65" height="65" fill="white"/>
</clipPath>
</defs>
</svg>
